<svg xmlns="http://www.w3.org/2000/svg" width="377" height="560" viewBox="0 0 377 560">
    <g fill="none" fill-rule="evenodd">
        <g>
            <g>
                <path fill="#FFF" fill-opacity="0" d="M0 0H375V560H0z" transform="translate(-2742.000000, -4427.000000) translate(2743.000000, 4427.000000)"/>
                <path fill="#222" fill-rule="nonzero" d="M83.661 119v-.87h-3.674v-.086l1.762-1.82c1.397-1.446 1.783-2.09 1.783-2.982 0-1.257-1.036-2.175-2.39-2.175-1.482 0-2.546.988-2.546 2.369h.935c0-.919.617-1.526 1.547-1.526.913 0 1.466.612 1.466 1.434 0 .682-.29 1.085-1.278 2.154l-2.621 2.836V119h5.016zM80.938 203.177c1.896 0 2.981-1.525 2.981-4.19 0-2.636-1.246-3.92-2.917-3.92-1.59 0-2.717 1.112-2.717 2.67 0 1.503 1.069 2.594 2.546 2.594.923 0 1.68-.44 2.062-1.193h.086c-.054 2.063-.768 3.18-2.03 3.18-.763 0-1.354-.424-1.558-1.123h-.994c.242 1.22 1.225 1.982 2.541 1.982zm.064-3.684c-1.025 0-1.74-.73-1.74-1.789 0-1.015.758-1.788 1.751-1.788.994 0 1.751.784 1.751 1.82 0 1.026-.736 1.757-1.762 1.757zM78.819 287v-7.75h-.962l-2.062 1.482v1.02l1.971-1.428h.086V287h.967zm4.845.177c1.59 0 2.718-1.112 2.718-2.67 0-1.503-1.069-2.593-2.546-2.593-.924 0-1.681.44-2.063 1.192h-.085c.032-2.106.784-3.18 2.073-3.18.784 0 1.353.403 1.514 1.123h.994c-.199-1.203-1.128-1.982-2.54-1.982-1.832 0-2.981 1.525-2.981 4.19 0 2.61 1.23 3.92 2.916 3.92zm-.01-.848c-.994 0-1.752-.785-1.752-1.821 0-1.026.736-1.757 1.762-1.757s1.74.73 1.74 1.789c0 1.015-.757 1.789-1.75 1.789zM80.315 371v-.87H76.64v-.086l1.762-1.82c1.396-1.446 1.783-2.09 1.783-2.982 0-1.257-1.037-2.175-2.39-2.175-1.483 0-2.546.988-2.546 2.369h.934c0-.919.618-1.526 1.547-1.526.913 0 1.467.612 1.467 1.434 0 .682-.29 1.085-1.279 2.154l-2.62 2.836V371h5.016zm4.04.183c1.54 0 2.728-.973 2.728-2.272 0-1.08-.666-1.762-1.67-1.923v-.086c.794-.231 1.374-.849 1.38-1.783.005-1.085-.876-2.052-2.407-2.052-1.568 0-2.53.93-2.626 2.191h.94c.08-.87.687-1.348 1.622-1.348s1.488.591 1.488 1.316c0 .806-.634 1.375-1.526 1.375h-.918v.827h.961c1.09 0 1.762.559 1.762 1.456 0 .87-.725 1.455-1.745 1.455-1 0-1.698-.52-1.784-1.337h-.934c.07 1.316 1.155 2.18 2.728 2.18zM77.772 455.183c1.541 0 2.728-.973 2.728-2.272 0-1.08-.666-1.762-1.67-1.923v-.086c.795-.231 1.375-.849 1.38-1.783.005-1.085-.875-2.052-2.406-2.052-1.569 0-2.53.93-2.627 2.191h.94c.08-.87.688-1.348 1.622-1.348.935 0 1.488.591 1.488 1.316 0 .806-.634 1.375-1.525 1.375h-.919v.827h.962c1.09 0 1.761.559 1.761 1.456 0 .87-.725 1.455-1.745 1.455-1 0-1.697-.52-1.783-1.337h-.935c.07 1.316 1.155 2.18 2.729 2.18zm6.682 0c1.74 0 2.739-1.472 2.739-4.045 0-2.567-1.015-4.071-2.74-4.071-1.734 0-2.75 1.498-2.75 4.055 0 2.578 1.005 4.06 2.75 4.06zm0-.844c-1.144 0-1.778-1.144-1.778-3.217 0-2.046.644-3.206 1.778-3.206 1.133 0 1.767 1.149 1.767 3.206 0 2.079-.623 3.217-1.767 3.217zM135.634 119.183c1.542 0 2.729-.973 2.729-2.272 0-1.08-.666-1.762-1.67-1.923v-.086c.794-.231 1.374-.849 1.38-1.783.005-1.085-.876-2.052-2.407-2.052-1.568 0-2.53.93-2.626 2.191h.94c.08-.87.687-1.348 1.622-1.348.934 0 1.488.591 1.488 1.316 0 .806-.634 1.375-1.526 1.375h-.918v.827h.961c1.09 0 1.762.559 1.762 1.456 0 .87-.725 1.455-1.746 1.455-.999 0-1.697-.52-1.783-1.337h-.934c.07 1.316 1.154 2.18 2.728 2.18zM132.86 203v-7.75h-.962l-2.063 1.482v1.02l1.971-1.428h.086V203h.967zm4.71.183c1.74 0 2.74-1.472 2.74-4.045 0-2.567-1.016-4.071-2.74-4.071-1.735 0-2.75 1.498-2.75 4.055 0 2.578 1.004 4.06 2.75 4.06zm0-.844c-1.144 0-1.778-1.144-1.778-3.217 0-2.046.645-3.206 1.778-3.206s1.767 1.149 1.767 3.206c0 2.079-.623 3.217-1.767 3.217zM133.69 287v-7.75h-.962l-2.062 1.482v1.02l1.97-1.428h.087V287h.966zm3.443 0l3.448-6.854v-.896h-5.13v.864h4.147v.075l-3.48 6.811h1.015zM134.304 371v-.87h-3.674v-.086l1.762-1.82c1.396-1.446 1.783-2.09 1.783-2.982 0-1.257-1.037-2.175-2.39-2.175-1.482 0-2.546.988-2.546 2.369h.935c0-.919.617-1.526 1.546-1.526.914 0 1.467.612 1.467 1.434 0 .682-.29 1.085-1.279 2.154l-2.62 2.836V371h5.016zm5.748 0v-1.606h1.1v-.865h-1.1v-5.28h-1.402c-1.085 1.617-2.272 3.508-3.32 5.264v.881h3.776V371h.946zm-.94-2.465h-2.793v-.065c.843-1.423 1.858-3.024 2.728-4.324h.065v4.389zM189.912 119v-1.606h1.101v-.865h-1.101v-5.28h-1.402c-1.085 1.617-2.272 3.508-3.32 5.264v.881h3.777V119h.945zm-.94-2.465h-2.793v-.065c.843-1.423 1.858-3.024 2.728-4.324h.065v4.389zM186.759 203v-7.75h-.962l-2.062 1.482v1.02l1.971-1.428h.086V203h.967zm4.926 0v-7.75h-.962l-2.062 1.482v1.02l1.97-1.428h.087V203h.967zM185.81 287v-7.75h-.96l-2.063 1.482v1.02l1.971-1.428h.086V287h.967zm4.755.183c1.643 0 2.793-.93 2.793-2.256 0-1.01-.64-1.794-1.612-1.977v-.086c.8-.22 1.295-.88 1.295-1.73 0-1.208-1.026-2.067-2.476-2.067s-2.476.86-2.476 2.068c0 .843.505 1.514 1.294 1.73v.085c-.972.183-1.611.967-1.611 1.977 0 1.326 1.15 2.256 2.793 2.256zm0-4.641c-.913 0-1.526-.526-1.526-1.316 0-.8.607-1.332 1.526-1.332.918 0 1.525.532 1.525 1.332 0 .79-.612 1.316-1.525 1.316zm0 3.813c-1.075 0-1.816-.612-1.816-1.498s.741-1.499 1.816-1.499c1.074 0 1.815.613 1.815 1.499 0 .886-.741 1.498-1.815 1.498zM187.36 371v-.87h-3.673v-.086l1.761-1.82c1.397-1.446 1.783-2.09 1.783-2.982 0-1.257-1.036-2.175-2.39-2.175-1.482 0-2.546.988-2.546 2.369h.935c0-.919.618-1.526 1.547-1.526.913 0 1.466.612 1.466 1.434 0 .682-.29 1.085-1.278 2.154l-2.621 2.836V371h5.016zm4.002.183c1.585 0 2.664-1.096 2.664-2.691 0-1.536-1.074-2.557-2.374-2.557-.773 0-1.348.236-1.724.704h-.086l.242-2.525h3.545v-.864h-4.302l-.446 4.43h.908c.306-.574.886-.912 1.622-.912.977 0 1.649.703 1.649 1.75 0 1.086-.672 1.816-1.687 1.816-.913 0-1.58-.553-1.665-1.38h-.95c.085 1.326 1.138 2.229 2.604 2.229zM243.142 119.183c1.585 0 2.664-1.096 2.664-2.691 0-1.536-1.074-2.557-2.374-2.557-.773 0-1.348.236-1.724.704h-.086l.242-2.525h3.545v-.864h-4.303l-.445 4.43h.907c.307-.574.887-.912 1.622-.912.978 0 1.65.703 1.65 1.75 0 1.086-.672 1.816-1.687 1.816-.913 0-1.58-.553-1.665-1.38h-.95c.085 1.326 1.138 2.229 2.604 2.229z" transform="translate(-2742.000000, -4427.000000) translate(2743.000000, 4427.000000)"/>
                <path stroke="#D4D4D4" stroke-dasharray="1 3" stroke-linecap="round" stroke-linejoin="round" d="M0 131L375 131M0 215L375 215M0 299L375 299M0 383L375 383M0 467L375 467" transform="translate(-2742.000000, -4427.000000) translate(2743.000000, 4427.000000)"/>
                <path fill="#222" fill-rule="nonzero" d="M241.001 203v-7.75h-.96l-2.063 1.482v1.02l1.97-1.428h.087V203H241zm7.123 0v-.87h-3.674v-.086l1.762-1.82c1.396-1.446 1.783-2.09 1.783-2.982 0-1.257-1.037-2.175-2.39-2.175-1.482 0-2.546.988-2.546 2.369h.935c0-.919.617-1.526 1.547-1.526.913 0 1.466.612 1.466 1.434 0 .682-.29 1.085-1.278 2.154l-2.622 2.836V203h5.017zM240.819 287v-7.75h-.962l-2.062 1.482v1.02l1.971-1.428h.086V287h.967zm4.582.177c1.896 0 2.98-1.525 2.98-4.19 0-2.636-1.245-3.92-2.916-3.92-1.59 0-2.717 1.112-2.717 2.67 0 1.503 1.068 2.594 2.545 2.594.924 0 1.682-.44 2.063-1.193h.086c-.054 2.063-.768 3.18-2.03 3.18-.763 0-1.354-.424-1.558-1.123h-.994c.242 1.22 1.225 1.982 2.54 1.982zm.064-3.684c-1.026 0-1.74-.73-1.74-1.789 0-1.015.757-1.788 1.751-1.788.994 0 1.751.784 1.751 1.82 0 1.026-.736 1.757-1.762 1.757zM242.258 371v-.87h-3.673v-.086l1.761-1.82c1.397-1.446 1.783-2.09 1.783-2.982 0-1.257-1.036-2.175-2.39-2.175-1.482 0-2.546.988-2.546 2.369h.935c0-.919.618-1.526 1.547-1.526.913 0 1.466.612 1.466 1.434 0 .682-.29 1.085-1.278 2.154l-2.621 2.836V371h5.016zm4.163.177c1.59 0 2.718-1.112 2.718-2.67 0-1.503-1.069-2.593-2.546-2.593-.924 0-1.68.44-2.062 1.192h-.086c.032-2.106.784-3.18 2.073-3.18.784 0 1.354.403 1.515 1.123h.993c-.198-1.203-1.128-1.982-2.54-1.982-1.832 0-2.981 1.525-2.981 4.19 0 2.61 1.23 3.92 2.916 3.92zm-.01-.848c-.994 0-1.751-.785-1.751-1.821 0-1.026.736-1.757 1.761-1.757 1.026 0 1.74.73 1.74 1.789 0 1.015-.757 1.789-1.75 1.789zM294.701 119.177c1.59 0 2.718-1.112 2.718-2.67 0-1.503-1.069-2.593-2.546-2.593-.924 0-1.681.44-2.062 1.192h-.086c.032-2.106.784-3.18 2.073-3.18.784 0 1.353.403 1.515 1.123h.993c-.199-1.203-1.128-1.982-2.54-1.982-1.832 0-2.981 1.525-2.981 4.19 0 2.61 1.23 3.92 2.916 3.92zm-.01-.848c-.994 0-1.752-.785-1.752-1.821 0-1.026.736-1.757 1.762-1.757s1.74.73 1.74 1.789c0 1.015-.757 1.789-1.75 1.789zM292.375 203v-7.75h-.961l-2.063 1.482v1.02l1.972-1.428h.085V203h.967zm4.722.183c1.541 0 2.728-.973 2.728-2.272 0-1.08-.666-1.762-1.67-1.923v-.086c.795-.231 1.375-.849 1.38-1.783.006-1.085-.875-2.052-2.406-2.052-1.568 0-2.53.93-2.626 2.191h.94c.08-.87.687-1.348 1.622-1.348.934 0 1.487.591 1.487 1.316 0 .806-.633 1.375-1.525 1.375h-.918v.827h.961c1.09 0 1.762.559 1.762 1.456 0 .87-.725 1.455-1.746 1.455-.999 0-1.697-.52-1.783-1.337h-.935c.07 1.316 1.155 2.18 2.729 2.18zM293.799 287v-.87h-3.674v-.086l1.762-1.82c1.396-1.446 1.783-2.09 1.783-2.982 0-1.257-1.037-2.175-2.39-2.175-1.483 0-2.546.988-2.546 2.369h.934c0-.919.618-1.526 1.547-1.526.913 0 1.466.612 1.466 1.434 0 .682-.29 1.085-1.278 2.154l-2.621 2.836V287h5.017zm4.028.183c1.74 0 2.74-1.472 2.74-4.045 0-2.567-1.015-4.071-2.74-4.071-1.734 0-2.75 1.498-2.75 4.055 0 2.578 1.005 4.06 2.75 4.06zm0-.844c-1.144 0-1.777-1.144-1.777-3.217 0-2.046.644-3.206 1.777-3.206 1.134 0 1.767 1.149 1.767 3.206 0 2.079-.623 3.217-1.767 3.217zM294.129 371v-.87h-3.674v-.086l1.762-1.82c1.396-1.446 1.783-2.09 1.783-2.982 0-1.257-1.037-2.175-2.39-2.175-1.483 0-2.546.988-2.546 2.369h.935c0-.919.617-1.526 1.546-1.526.914 0 1.467.612 1.467 1.434 0 .682-.29 1.085-1.279 2.154l-2.62 2.836V371h5.016zm2.761 0l3.448-6.854v-.896h-5.129v.864h4.146v.075l-3.48 6.811h1.015zM349.17 119L352.618 112.146 352.618 111.25 347.489 111.25 347.489 112.114 351.635 112.114 351.635 112.189 348.155 119zM347.784 203v-7.75h-.961l-2.063 1.482v1.02l1.971-1.428h.086V203h.967zm6.59 0v-1.606h1.102v-.865h-1.101v-5.28h-1.402c-1.085 1.617-2.272 3.508-3.32 5.264v.881h3.776V203h.946zm-.94-2.465h-2.792v-.065c.843-1.423 1.858-3.024 2.728-4.324h.065v4.389zM350.198 287v-.87h-3.674v-.086l1.762-1.82c1.397-1.446 1.783-2.09 1.783-2.982 0-1.257-1.036-2.175-2.39-2.175-1.482 0-2.546.988-2.546 2.369h.935c0-.919.618-1.526 1.547-1.526.913 0 1.466.612 1.466 1.434 0 .682-.29 1.085-1.278 2.154l-2.621 2.836V287h5.016zm4.244 0v-7.75h-.962l-2.062 1.482v1.02l1.971-1.428h.086V287h.967zM349.25 371v-.87h-3.674v-.086l1.762-1.82c1.397-1.446 1.783-2.09 1.783-2.982 0-1.257-1.036-2.175-2.39-2.175-1.482 0-2.546.988-2.546 2.369h.935c0-.919.618-1.526 1.547-1.526.913 0 1.466.612 1.466 1.434 0 .682-.29 1.085-1.278 2.154l-2.621 2.836V371h5.016zm4.072.183c1.644 0 2.793-.93 2.793-2.256 0-1.01-.64-1.794-1.611-1.977v-.086c.8-.22 1.294-.88 1.294-1.73 0-1.208-1.026-2.067-2.476-2.067s-2.476.86-2.476 2.068c0 .843.505 1.514 1.294 1.73v.085c-.972.183-1.61.967-1.61 1.977 0 1.326 1.148 2.256 2.792 2.256zm0-4.641c-.913 0-1.525-.526-1.525-1.316 0-.8.607-1.332 1.525-1.332.918 0 1.525.532 1.525 1.332 0 .79-.612 1.316-1.525 1.316zm0 3.813c-1.074 0-1.815-.612-1.815-1.498s.74-1.499 1.815-1.499c1.074 0 1.815.613 1.815 1.499 0 .886-.74 1.498-1.815 1.498zM27.722 119L27.722 111.25 26.76 111.25 24.698 112.732 24.698 113.752 26.669 112.324 26.755 112.324 26.755 119zM26.602 203.183c1.643 0 2.793-.93 2.793-2.256 0-1.01-.64-1.794-1.612-1.977v-.086c.8-.22 1.295-.88 1.295-1.73 0-1.208-1.026-2.067-2.476-2.067s-2.476.86-2.476 2.068c0 .843.505 1.514 1.294 1.73v.085c-.972.183-1.611.967-1.611 1.977 0 1.326 1.15 2.256 2.793 2.256zm0-4.641c-.913 0-1.526-.526-1.526-1.316 0-.8.607-1.332 1.526-1.332.918 0 1.525.532 1.525 1.332 0 .79-.612 1.316-1.525 1.316zm0 3.813c-1.074 0-1.816-.612-1.816-1.498s.742-1.499 1.816-1.499 1.815.613 1.815 1.499c0 .886-.741 1.498-1.815 1.498zM24.42 287v-7.75h-.96l-2.063 1.482v1.02l1.971-1.428h.086V287h.967zm4.685.183c1.584 0 2.664-1.096 2.664-2.691 0-1.536-1.074-2.557-2.374-2.557-.773 0-1.348.236-1.724.704h-.086l.242-2.525h3.545v-.864h-4.303l-.445 4.43h.907c.306-.574.886-.912 1.622-.912.978 0 1.65.703 1.65 1.75 0 1.086-.672 1.816-1.687 1.816-.913 0-1.58-.553-1.665-1.38H26.5c.086 1.326 1.139 2.229 2.605 2.229zM25.941 371v-.87h-3.674v-.086l1.762-1.82c1.396-1.446 1.783-2.09 1.783-2.982 0-1.257-1.037-2.175-2.39-2.175-1.483 0-2.546.988-2.546 2.369h.935c0-.919.617-1.526 1.546-1.526.914 0 1.467.612 1.467 1.434 0 .682-.29 1.085-1.279 2.154l-2.62 2.836V371h5.016zm6.44 0v-.87h-3.673v-.086l1.761-1.82c1.397-1.446 1.783-2.09 1.783-2.982 0-1.257-1.036-2.175-2.39-2.175-1.482 0-2.546.988-2.546 2.369h.935c0-.919.618-1.526 1.547-1.526.913 0 1.466.612 1.466 1.434 0 .682-.29 1.085-1.278 2.154l-2.621 2.836V371h5.016zM25.758 455v-.87h-3.673v-.086l1.761-1.82c1.397-1.446 1.783-2.09 1.783-2.982 0-1.257-1.036-2.175-2.39-2.175-1.482 0-2.546.988-2.546 2.369h.935c0-.919.618-1.526 1.547-1.526.913 0 1.466.612 1.466 1.434 0 .682-.29 1.085-1.278 2.154l-2.621 2.836V455h5.016zm3.9.177c1.896 0 2.981-1.525 2.981-4.19 0-2.636-1.246-3.92-2.916-3.92-1.59 0-2.718 1.112-2.718 2.67 0 1.503 1.069 2.594 2.546 2.594.924 0 1.68-.44 2.062-1.193h.086c-.053 2.063-.768 3.18-2.03 3.18-.763 0-1.354-.424-1.558-1.123h-.993c.241 1.22 1.224 1.982 2.54 1.982zm.065-3.684c-1.026 0-1.74-.73-1.74-1.789 0-1.015.757-1.788 1.75-1.788.994 0 1.751.784 1.751 1.82 0 1.026-.735 1.757-1.761 1.757z" transform="translate(-2742.000000, -4427.000000) translate(2743.000000, 4427.000000)"/>
                <path fill="#E9E9E9" d="M0 99H375V100H0zM214 100H215V520H214zM268 100H269V520H268zM322 100H323V520H322zM161 100H162V520H161zM107 100H108V520H107zM53 100H54V520H53z" transform="translate(-2742.000000, -4427.000000) translate(2743.000000, 4427.000000)"/>
                <path fill="#E9E9E9" d="M0 183H375V184H0zM0 267H375V268H0zM0 351H375V352H0zM0 435H375V436H0zM0 519H375V520H0z" transform="translate(-2742.000000, -4427.000000) translate(2743.000000, 4427.000000)"/>
                <path fill="#999" d="M20 60H355V61H20z" transform="translate(-2742.000000, -4427.000000) translate(2743.000000, 4427.000000)"/>
            </g>
        </g>
    </g>
</svg>
